# xmcd CD database file
#
# Track frame offsets:
#	150
#	10670
#	34922
#	56040
#	79260
#	98950
#	117417
#	126267
#	141967
#	157700
#	175460
#	196277
#
# Disc length: 2982 seconds
#
# Revision: 0
# Processed by: cddbd v1.5PL3 Copyright (c) Steve Scherf et al.
# Submitted via: CDex 1.51
#
DISCID=a10ba40c
DTITLE=Solid Brass - Solid Brass
DYEAR=1900
DGENRE=Jazz
TTITLE0=mizutani
TTITLE1=landscape
TTITLE2=10 feet hight
TTITLE3=prodigal son
TTITLE4=after image
TTITLE5=ska
TTITLE6=night and day
TTITLE7=well you needn't
TTITLE8=caravan
TTITLE9=chealsea bridge
TTITLE10=smoke and cloud
TTITLE11=jazz men
EXTD=
EXTT0=
EXTT1=
EXTT2=
EXTT3=
EXTT4=
EXTT5=
EXTT6=
EXTT7=
EXTT8=
EXTT9=
EXTT10=
EXTT11=
PLAYORDER=
